#!OML:ASF E:\acrobat2\Project_11_07_03\Capture day 1\Session 1\Acrobat.ASF
:FULLY-SPECIFIED
:DEGREES
847
root 9.6725 18.6157 16.9648 19.2784 -3.90484 -3.51218
lowerback 27.2614 -3.9715 1.76482
upperback 9.68211 -4.73721 -1.91206
thorax -4.54757 -2.25142 -1.66384
lowerneck -1.33407 8.88442 3.6554
upperneck -14.6946 12.8741 4.11806
head -4.73906 6.01277 0.294617
rclavicle -1.74931e-014 -3.81667e-014
rhumerus 17.435 3.30206 22.5272
rradius 103.585
rwrist 380.742
rhand -20.8207 -25.009
rfingers 7.12502
rthumb 5.54746 305.084
lclavicle -1.74931e-014 -3.81667e-014
lhumerus -3.19065 -50.5666 8.43013
lradius 50.4313
lwrist 2.29855
lhand -4.20074 -24.972
lfingers 7.12502
lthumb 21.5612 3.8478
rfemur -41.3531 -23.2957 16.3913
rtibia 37.3483
rfoot 10.1838 -13.1339
rtoes 10.8093
lfemur -40.5261 29.9617 -7.25222
ltibia 38.3614
lfoot -357.048 15.193
ltoes 36.9888
848
root 9.6758 19.0046 17.0186 19.7519 -4.41988 -3.58143
lowerback 27.0344 -4.12683 1.89314
upperback 9.29574 -4.92383 -2.04539
thorax -4.90013 -2.34404 -1.82076
lowerneck -1.29365 8.76369 3.81718
upperneck -12.808 12.5728 4.33066
head -4.05078 5.91127 0.396384
rclavicle -3.18055e-015 -2.38542e-015
rhumerus 15.8983 3.79036 24.0833
rradius 104.764
rwrist 380.459
rhand -21.3926 -24.9028
rfingers 7.12502
rthumb 4.99528 305.176
lclavicle -3.18055e-015 -2.38542e-015
lhumerus -8.05308 -50.8553 11.4249
lradius 51.3176
lwrist 1.7824
lhand -3.03592 -25.4223
lfingers 7.12502
lthumb 22.6795 3.26497
rfemur -39.0645 -21.8225 15.3942
rtibia 32.3601
rfoot 13.5688 -15.0712
rtoes 13.781
lfemur -37.343 28.6159 -5.85324
ltibia 32.7116
lfoot -354.58 19.5373
ltoes 38.6069
849
root 9.67646 19.383 17.0734 20.3562 -4.91722 -3.65771
lowerback 26.6881 -4.22633 2.01504
upperback 8.85895 -5.04161 -2.12747
thorax -5.2429 -2.40579 -1.94382
lowerneck -1.17355 8.52932 3.8076
upperneck -10.948 12.1156 4.46571
head -3.41389 5.74092 0.494963
rclavicle -6.83819e-014 -1.59028e-015
rhumerus 14.1819 4.2091 25.4822
rradius 105.965
rwrist 380.067
rhand -21.9082 -24.7946
rfingers 7.12502
rthumb 4.49745 305.273
lclavicle -6.83819e-014 -1.59028e-015
lhumerus -12.7311 -50.6257 14.3927
lradius 52.3705
lwrist 1.40828
lhand -1.86279 -25.8463
lfingers 7.12502
lthumb 23.805 2.69889
rfemur -36.9723 -19.9807 14.2901
rtibia 27.6186
rfoot 15.3773 -17.1537
rtoes 15.9296
lfemur -34.305 26.7432 -4.28579
ltibia 27.0982
lfoot -352.822 23.6079
ltoes 40.0562
850
root 9.67387 19.7477 17.1295 21.0607 -5.39382 -3.70534
lowerback 26.192 -4.25389 2.10261
upperback 8.41057 -5.07806 -2.17392
thorax -5.51408 -2.43009 -2.04175
lowerneck -0.991448 8.17897 3.61876
upperneck -9.14876 11.5099 4.54942
head -2.83494 5.49912 0.59951
rclavicle 1.59028e-015 -6.36111e-015
rhumerus 12.211 4.4917 26.7706
rradius 107.17
rwrist 379.652
rhand -22.3687 -24.6932
rfingers 7.12502
rthumb 4.05277 305.366
lclavicle 1.59028e-015 -6.36111e-015
lhumerus -16.9986 -49.9516 17.0718
lradius 53.6025
lwrist 1.11491
lhand -0.918425 -26.1718
lfingers 7.12502
lthumb 24.7104 2.25237
rfemur -35.1068 -17.7903 13.0317
rtibia 23.2719
rfoot 15.3519 -19.4487
rtoes 16.9403
lfemur -31.5005 24.32 -2.62428
ltibia 21.7485
lfoot -352.199 26.8992
ltoes 41.7011
851
root 9.66794 20.0961 17.1852 21.8624 -5.81871 -3.69918
lowerback 25.533 -4.21909 2.14681
upperback 7.9608 -5.04722 -2.1917
thorax -5.69382 -2.423 -2.11363
lowerneck -0.780036 7.74604 3.23718
upperneck -7.40696 10.8046 4.61777
head -2.3052 5.20653 0.724
rclavicle 4.6118e-014 1.11319e-014
rhumerus 9.98803 4.60549 27.9727
rradius 108.304
rwrist 379.273
rhand -22.8067 -24.6078
rfingers 7.12502
rthumb 3.62973 305.443
lclavicle 4.6118e-014 1.11319e-014
lhumerus -20.7503 -48.9314 19.3149
lradius 55.0217
lwrist 0.913165
lhand -0.219878 -26.4071
lfingers 7.12502
lthumb 25.3798 1.92371
rfemur -33.5422 -15.3623 11.6204
rtibia 19.4669
rfoot 13.4971 -22.0672
rtoes 17.3246
lfemur -29.1378 21.4734 -1.00488
ltibia 17.0181
lfoot -353.124 29.1554
ltoes 43.7645
852
root 9.65936 20.4259 17.2362 22.772 -6.15275 -3.61791
lowerback 24.7006 -4.14718 2.15136
upperback 7.51757 -4.98011 -2.19395
thorax -5.76886 -2.3986 -2.16661
lowerneck -0.677187 7.23052 2.68984
upperneck -5.68158 9.99743 4.78019
head -1.7871 4.85922 0.904784
rclavicle 2.70347e-014 -1.59028e-015
rhumerus 7.74944 4.50853 29.1067
rradius 109.088
rwrist 378.923
rhand -23.2397 -24.5792
rfingers 7.12502
rthumb 3.21159 305.465
lclavicle 2.70347e-014 -1.59028e-015
lhumerus -23.9447 -47.6428 21.0274
lradius 56.6292
lwrist 0.857478
lhand 0.287864 -26.5503
lfingers 7.12502
lthumb 25.8661 1.71051
rfemur -32.3688 -12.8716 10.0709
rtibia 16.3181
rfoot 10.0478 -24.9755
rtoes 17.9908
lfemur -27.489 18.6066 0.377491
ltibia 13.3324
lfoot -355.607 30.2315
ltoes 45.935
853
root 9.6497 20.7368 17.2805 23.719 -6.40263 -3.45992
lowerback 23.7794 -4.0484 2.12385
upperback 7.10415 -4.88694 -2.20734
thorax -5.75711 -2.36096 -2.22645
lowerneck -0.720439 6.65808 2.11015
upperneck -3.97466 9.11527 4.89456
head -1.25563 4.4706 1.07702
rclavicle -3.18055e-014 1.59028e-015
rhumerus 5.51841 4.20115 30.1305
rradius 109.473
rwrist 378.592
rhand -23.6577 -24.633
rfingers 7.12502
rthumb 2.80796 305.406
lclavicle -3.18055e-014 1.59028e-015
lhumerus -26.5356 -46.1552 22.1312
lradius 58.4078
lwrist 0.995707
lhand 0.712937 -26.6189
lfingers 7.12502
lthumb 26.2731 1.58193
rfemur -31.562 -10.5711 8.44155
rtibia 13.8713
rfoot 5.58796 -27.7915
rtoes 19.2365
lfemur -26.6286 16.376 1.33713
ltibia 11.0001
lfoot -358.79 30.139
ltoes 47.6403
854
root 9.64004 21.0296 17.3159 24.6369 -6.5463 -3.22037
lowerback 22.8579 -3.94461 2.07332
upperback 6.73819 -4.79135 -2.24255
thorax -5.68643 -2.32091 -2.29814
lowerneck -0.926327 6.04388 1.5328
upperneck -2.30976 8.18416 4.95342
head -0.712386 4.05207 1.23256
rclavicle -9.54166e-015 3.18055e-015
rhumerus 3.38977 3.67824 31.0088
rradius 109.392
rwrist 378.202
rhand -24.021 -24.7361
rfingers 7.12502
rthumb 2.45712 305.298
lclavicle -9.54166e-015 3.18055e-015
lhumerus -28.5361 -44.5158 22.6316
lradius 60.3335
lwrist 1.35268
lhand 1.21414 -26.6359
lfingers 7.12502
lthumb 26.7528 1.49258
rfemur -31.0383 -8.68926 6.78855
rtibia 12.0949
rfoot 0.779721 -30.0971
rtoes 21.5056
lfemur -26.5766 15.385 1.70163
ltibia 10.1929
lfoot -361.26 29.2873
ltoes 48.4354
855
root 9.63068 21.3057 17.3406 25.4663 -6.58474 -2.90226
lowerback 22.0295 -3.84041 2.00163
upperback 6.42657 -4.69702 -2.30672
thorax -5.59886 -2.28004 -2.38449
lowerneck -1.27854 5.38777 1.02227
upperneck -0.703718 7.20832 4.87976
head -0.156134 3.60459 1.33696
rclavicle 2.54444e-014 -3.18055e-015
rhumerus 1.3694 2.95153 31.7049
rradius 108.9
rwrist 377.666
rhand -24.2744 -24.8566
rfingers 7.12502
rthumb 2.21237 305.175
lclavicle 2.54444e-014 -3.18055e-015
lhumerus -29.9877 -42.765 22.5745
lradius 62.3902
lwrist 1.89846
lhand 1.88627 -26.6075
lfingers 7.12502
lthumb 27.3958 1.42091
rfemur -30.7004 -7.37118 5.17881
rtibia 10.9221
rfoot -3.63587 -31.5331
rtoes 24.13
lfemur -27.2367 15.769 1.45225
ltibia 10.8395
lfoot -362.368 28.1223
ltoes 48.3622
856
root 9.62096 21.5668 17.3541 26.1572 -6.52823 -2.51834
lowerback 21.3856 -3.73142 1.90842
upperback 6.16589 -4.59708 -2.40199
thorax -5.54682 -2.23517 -2.4847
lowerneck -1.67567 4.7026 0.572982
upperneck 0.767877 6.21647 4.63949
head 0.377275 3.13878 1.37549
rclavicle 1.27222e-014 4.77083e-015
rhumerus -0.608663 2.02885 32.1794
rradius 108.144
rwrist 376.902
rhand -24.3832 -24.9455
rfingers 7.12502
rthumb 2.10723 305.085
lclavicle 1.27222e-014 4.77083e-015
lhumerus -30.9405 -40.9288 22.0144
lradius 64.5661
lwrist 2.56575
lhand 2.7081 -26.5497
lfingers 7.12502
lthumb 28.1816 1.35188
rfemur -30.4566 -6.68823 3.6883
rtibia 10.2915
rfoot -6.97106 -31.98
rtoes 25.7883
lfemur -28.4126 17.1338 0.750261
ltibia 12.6387
lfoot -362.083 26.9577
ltoes 47.5677
857
root 9.60985 21.8142 17.3572 26.6891 -6.39196 -2.09383
lowerback 20.9666 -3.61148 1.79581
upperback 5.9478 -4.48255 -2.51797
thorax -5.56138 -2.18225 -2.58921
lowerneck -1.99738 4.02229 0.0834138
upperneck 2.04884 5.26293 4.29637
head 0.846459 2.67883 1.37852
rclavicle -3.65764e-014 1.43125e-014
rhumerus -2.58304 0.880582 32.417
rradius 107.272
rwrist 375.839
rhand -24.3296 -24.9346
rfingers 7.12502
rthumb 2.15903 305.097
lclavicle -3.65764e-014 1.43125e-014
lhumerus -31.4542 -38.9927 21.0326
lradius 66.838
lwrist 3.26568
lhand 3.85768 -26.5406
lfingers 7.12502
lthumb 29.2798 1.1747
rfemur -30.2544 -6.61909 2.37326
rtibia 10.1539
rfoot -8.85445 -31.582
rtoes 25.82
lfemur -29.8994 18.9446 -0.170903
ltibia 15.2287
lfoot -360.583 25.7196
ltoes 46.4227
858
root 9.59649 22.0486 17.3507 27.0709 -6.20248 -1.6432
lowerback 20.7393 -3.46108 1.67472
upperback 5.7717 -4.3281 -2.65959
thorax -5.6273 -2.10926 -2.71841
lowerneck -2.19854 3.34545 -0.492936
upperneck 3.14413 4.3437 3.93811
head 1.24196 2.22346 1.3796
rclavicle 9.54166e-015 -1.59028e-015
rhumerus -4.59915 -0.519346 32.433
rradius 106.405
rwrist 374.416
rhand -24.1109 -24.8108
rfingers 7.12502
rthumb 2.37021 305.223
lclavicle 9.54166e-015 -1.59028e-015
lhumerus -31.5115 -36.9624 19.6616
lradius 69.1815
lwrist 3.95389
lhand 5.17834 -26.5621
lfingers 7.12502
lthumb 30.5401 0.925964
rfemur -30.085 -7.0552 1.22342
rtibia 10.4612
rfoot -9.47084 -30.6035
rtoes 24.354
lfemur -31.5532 20.8302 -1.14206
ltibia 18.3265
lfoot -358.125 24.2288
ltoes 45.0883
859
root 9.58111 22.2701 17.3364 27.3194 -5.99813 -1.18401
lowerback 20.6871 -3.26219 1.55085
upperback 5.61907 -4.11102 -2.82528
thorax -5.75557 -2.00577 -2.881
lowerneck -2.20416 2.67889 -1.16364
upperneck 4.06774 3.46174 3.58473
head 1.55339 1.77522 1.38627
rclavicle 2.8625e-014 -8.74653e-015
rhumerus -6.71276 -2.18569 32.2648
rradius 105.671
rwrist 372.62
rhand -23.7351 -24.6189
rfingers 7.12502
rthumb 2.73324 305.419
lclavicle 2.8625e-014 -8.74653e-015
lhumerus -31.1492 -34.8919 17.9712
lradius 71.6058
lwrist 4.69221
lhand 6.53142 -26.5728
lfingers 7.12502
lthumb 31.8296 0.66721
rfemur -29.9568 -7.8753 0.208029
rtibia 11.1645
rfoot -9.23732 -29.2755
rtoes 21.8104
lfemur -33.268 22.6079 -2.0658
ltibia 21.7511
lfoot -355.283 22.3818
ltoes 43.646
